<svg width="71" height="81" viewBox="0 0 71 81" fill="none" xmlns="http://www.w3.org/2000/svg">
<g clip-path="url(#clip0)" filter="url(#filter0_d)">
<path d="M64.1861 16.4432L62.6405 11.8102C62.052 10.0457 60.4065 8.86008 58.5469 8.86008H45.5571V4.63087C45.5571 2.51707 43.8385 0.796875 41.7252 0.796875H29.8296C27.7169 0.796875 25.9977 2.51707 25.9977 4.63087V8.86008H13.0084C11.1483 8.86008 9.50282 10.0457 8.91429 11.8102L7.36873 16.4432C7.01678 17.4979 7.19516 18.6659 7.84511 19.5679C8.49506 20.47 9.54661 21.0088 10.6585 21.0088H12.274L15.8298 64.9783C16.0942 68.2409 18.8627 70.7969 22.1338 70.7969H50.1425C53.413 70.7969 56.1821 68.2409 56.446 64.9778L60.0017 21.0088H60.8963C62.0082 21.0088 63.0597 20.47 63.7097 19.5685C64.3596 18.6664 64.538 17.4979 64.1861 16.4432V16.4432ZM30.0993 4.89844H41.4555V8.86008H30.0993V4.89844ZM52.3577 64.6472C52.2648 65.796 51.2918 66.6953 50.1425 66.6953H22.1338C20.9845 66.6953 20.0115 65.796 19.9185 64.6472L16.389 21.0088H55.8868L52.3577 64.6472ZM11.5381 16.9073L12.8054 13.108C12.8343 13.0204 12.916 12.9616 13.0084 12.9616H58.5469C58.6393 12.9616 58.7205 13.0204 58.7499 13.108L60.0172 16.9073H11.5381Z" fill="white"/>
<path d="M45.8166 64.5019C45.8529 64.5041 45.8887 64.5046 45.925 64.5046C47.0086 64.5046 47.9144 63.6554 47.971 62.5606L49.8968 25.5921C49.9556 24.461 49.0861 23.4959 47.9555 23.4372C46.8217 23.3768 45.8599 24.2473 45.8006 25.3785L43.8753 62.347C43.8166 63.4781 44.6855 64.4432 45.8166 64.5019V64.5019Z" fill="white"/>
<path d="M23.6751 62.5655C23.7349 63.6587 24.6396 64.5046 25.721 64.5046C25.7584 64.5046 25.7969 64.5036 25.8348 64.5014C26.9654 64.44 27.8322 63.4734 27.7708 62.3422L25.7536 25.3737C25.6922 24.2426 24.7256 23.3758 23.5944 23.4377C22.4638 23.4991 21.5971 24.4658 21.6585 25.5969L23.6751 62.5655Z" fill="white"/>
<path d="M35.8004 64.5046C36.9331 64.5046 37.8511 63.5866 37.8511 62.4538V25.4853C37.8511 24.3526 36.9331 23.4345 35.8004 23.4345C34.6676 23.4345 33.7496 24.3526 33.7496 25.4853V62.4538C33.7496 63.5866 34.6676 64.5046 35.8004 64.5046Z" fill="white"/>
</g>
<defs>
<filter id="filter0_d" x="-3.23438" y="0.796875" width="78" height="80" filterUnits="userSpaceOnUse" color-interpolation-filters="sRGB">
<feFlood flood-opacity="0" result="BackgroundImageFix"/>
<feColorMatrix in="SourceAlpha" type="matrix" values="0 0 0 0 0 0 0 0 0 0 0 0 0 0 0 0 0 0 127 0"/>
<feOffset dy="6"/>
<feGaussianBlur stdDeviation="2"/>
<feColorMatrix type="matrix" values="0 0 0 0 0 0 0 0 0 0 0 0 0 0 0 0 0 0 0.25 0"/>
<feBlend mode="normal" in2="BackgroundImageFix" result="effect1_dropShadow"/>
<feBlend mode="normal" in="SourceGraphic" in2="effect1_dropShadow" result="shape"/>
</filter>
<clipPath id="clip0">
<rect width="70" height="70" fill="white" transform="translate(0.765625 0.796875)"/>
</clipPath>
</defs>
</svg>
