<svg width="726" height="726" viewBox="0 0 726 726" fill="none" xmlns="http://www.w3.org/2000/svg">
<g clip-path="url(#clip0)">
<path d="M515.735 181.981L363 334.716L210.265 181.981C202.454 174.17 189.791 174.17 181.981 181.981C174.17 189.791 174.17 202.454 181.981 210.265L334.716 363L181.981 515.735C174.17 523.546 174.17 536.209 181.981 544.019C189.791 551.83 202.454 551.83 210.265 544.019L363 391.284L515.735 544.019C523.546 551.83 536.209 551.83 544.019 544.019C551.83 536.209 551.83 523.546 544.019 515.735L391.284 363L544.019 210.265C551.83 202.454 551.83 189.791 544.019 181.981C536.209 174.17 523.546 174.17 515.735 181.981Z" fill="#E70000"/>
</g>
<defs>
<clipPath id="clip0">
<rect width="512" height="512" fill="white" transform="translate(0.961304 363) rotate(-45)"/>
</clipPath>
</defs>
</svg>
